# xmcd
#
# Track frame offsets: 
#        150
#        15821
#        41878
#        54428
#        74114
#        94520
#        117215
#        135918
#        150644
#        170671
#        193380
#        210102
#        239181
#
# Disc length: 3456 seconds
#
# Revision: 4
# Processed by: cddbd v1.5.2PL0 Copyright (c) Steve Scherf et al.
# Submitted via: ExactAudioCopy v1.0b4
#
DISCID=b10d7e0d
DTITLE=Lars Danielsson - Tarantella
DYEAR=2009
DGENRE=Jazz
TTITLE0=Pegasus
TTITLE1=Melody On Wood
TTITLE2=Traveller's Wife
TTITLE3=Traveller's Defense
TTITLE4=1000 Ways
TTITLE5=Ballet
TTITLE6=Across The Sun
TTITLE7=Introitus
TTITLE8=Fiojo
TTITLE9=Tarantella
TTITLE10=Ballerina
TTITLE11=The Madonna
TTITLE12=Postludium
EXTD=YEAR: 2009
EXTT0=
EXTT1=
EXTT2=
EXTT3=
EXTT4=
EXTT5=
EXTT6=
EXTT7=
EXTT8=
EXTT9=
EXTT10=
EXTT11=
EXTT12=
PLAYORDER=
